<svg xmlns="http://www.w3.org/2000/svg" width="50.501" height="35.651" viewBox="0 0 50.501 35.651"><defs><style>.a{fill:#000;}</style></defs><g transform="translate(-851.774 -170.94)"><path class="a" d="M1787.912,170.942q11.13,0,22.262,0a4.009,4.009,0,0,1,1.732.206,1.68,1.68,0,0,1,.543,2.843c-3.581,3.617-7.051,7.352-10.757,10.836-4.057,3.815-7.776,7.964-11.859,11.748-1.345,1.247-2.383,1.254-3.691-.052q-10.36-10.347-20.7-20.71a17.961,17.961,0,0,1-1.975-1.918c-.4-.538-.759-1.006-.439-1.694a1.916,1.916,0,0,1,1.62-1.225c.458-.041.921-.035,1.382-.035h21.886" transform="translate(-911)"/><path class="a" d="M1788.026,206.588q-11.141,0-22.281,0a2.648,2.648,0,0,1-2.547-1.031,1.4,1.4,0,0,1,.1-1.941c.894-.883,1.781-1.773,2.67-2.664,3.194-3.205,6.409-6.392,9.567-9.634.764-.784,1.261-.52,1.875.1q3.367,3.4,6.762,6.768a5.052,5.052,0,0,0,7.667.028c2.266-2.242,4.5-4.517,6.723-6.8.657-.676,1.225-.76,1.916-.065,4,4.013,8.024,8,12,12.029,1.158,1.172.608,2.744-1.047,3.119a6.891,6.891,0,0,1-1.5.085q-10.95.006-21.9,0" transform="translate(-911)"/><path class="a" d="M1813.249,188.665c0,3.27.011,6.539-.009,9.808,0,.465.215,1.093-.41,1.323s-.949-.248-1.349-.658q-4.45-4.563-8.966-9.065c-1.237-1.23-1.314-1.589-.041-2.7,3.362-2.946,6.288-6.334,9.571-9.357.258-.238.422-.739.884-.542.422.179.312.649.313,1.009.01,3.4.006,6.79.007,10.185" transform="translate(-911)"/><path class="a" d="M1762.8,188.8c0-3.313-.005-6.625.01-9.938,0-.433-.16-1.023.4-1.208.452-.15.737.32,1.024.606,3.238,3.227,6.457,6.472,9.71,9.683.612.6.652,1.028.019,1.653-3.312,3.269-6.591,6.573-9.886,9.861-.26.261-.531.659-.937.513-.515-.185-.326-.716-.328-1.106-.014-3.355-.008-6.71-.007-10.064" transform="translate(-911)"/></g></svg>