<?xml version="1.0" encoding="utf-8"?>
<!-- Generator: Adobe Illustrator 24.0.2, SVG Export Plug-In . SVG Version: 6.00 Build 0)  -->
<svg version="1.1" id="Layer_1" xmlns="http://www.w3.org/2000/svg" xmlns:xlink="http://www.w3.org/1999/xlink" x="0px" y="0px"
	 viewBox="0 0 47 47" style="enable-background:new 0 0 47 47;" xml:space="preserve">
<style type="text/css">
	.st0{opacity:0.85;fill:#FFFFFF;enable-background:new    ;}
</style>
<polygon class="st0" points="8.2,0 0,0 0,18.7 8.2,18.7 8.2,8.2 18.7,8.2 18.7,0 "/>
<polygon class="st0" points="38.7,0 28.3,0 28.3,8.2 38.7,8.2 38.7,18.7 46.9,18.7 46.9,0 "/>
<polygon class="st0" points="8.2,38.7 8.2,28.3 0,28.3 0,47 8.2,47 8.2,46.9 18.7,46.9 18.7,38.7 "/>
<polygon class="st0" points="38.7,28.3 38.7,38.7 28.3,38.7 28.3,46.9 38.7,46.9 38.7,47 46.9,47 46.9,28.3 "/>
</svg>
