<svg id="Layer_1" data-name="Layer 1" xmlns="http://www.w3.org/2000/svg" viewBox="0 0 67.27 58.69"><defs><style>.cls-1{opacity:0.85;}.cls-2{fill:#fff;}</style></defs><g class="cls-1"><path class="cls-2" d="M37.7,29.32q0,13.44,0,26.88c0,.85.23,1.88-.71,2.35s-1.58-.44-2.22-1Q27,51.18,19.22,44.71A2.81,2.81,0,0,0,17.27,44c-3.33,0-6.66-.07-10,0-3.73.12-4.94-1.22-6.23-4.71-.91-2.47-.88-5.13-1-7.73a47.19,47.19,0,0,1,.78-11.5,9.89,9.89,0,0,1,1.73-3.66,4.38,4.38,0,0,1,3.87-1.75c3.59,0,7.19,0,10.78,0a2.91,2.91,0,0,0,2.05-.74C24.54,9.53,29.85,5.15,35.15.77c.52-.43,1.06-1,1.8-.67S37.7,1.26,37.7,2Z"/><path class="cls-2" d="M67.27,22.71a1.79,1.79,0,0,1-.61.8c-1.63,1.63-3.24,3.29-4.91,4.87-.74.69-.83,1.14,0,1.88,1.74,1.63,3.37,3.37,5.08,5,.57.55.58.94,0,1.48a27.64,27.64,0,0,0-2.17,2.16c-.55.62-1,.66-1.55,0C61.4,37.21,59.63,35.55,58,33.8c-.62-.65-1-.63-1.64,0-1.67,1.74-3.42,3.41-5.11,5.15-.53.55-.91.65-1.47,0a29.72,29.72,0,0,0-2.24-2.25c-.6-.55-.52-1,0-1.48,1.71-1.66,3.33-3.4,5.08-5,.8-.75.68-1.17,0-1.85-1.71-1.61-3.3-3.33-5-4.94-.69-.65-.58-1.09,0-1.65a21.86,21.86,0,0,0,1.92-1.93c.64-.74,1.14-.76,1.83,0,1.48,1.57,3,3.06,4.56,4.59,1.23,1.23,1.23,1.23,2.42,0,1.58-1.58,3.17-3.14,4.72-4.74.55-.56,1-.6,1.49,0,.74.81,1.54,1.56,2.31,2.34C67.05,22.25,67.28,22.4,67.27,22.71Z"/></g></svg>