<svg id="Layer_1" data-name="Layer 1" xmlns="http://www.w3.org/2000/svg" viewBox="0 0 71.88 57.9"><defs><style>.cls-1{opacity:0.85;}.cls-2{fill:#fff;}</style></defs><g class="cls-1"><path class="cls-2" d="M37.14,28.94q0,13.1,0,26.17c0,.94.3,2.12-.72,2.65s-1.67-.54-2.35-1.1Q26.46,50.41,18.9,44.1A2.83,2.83,0,0,0,17,43.4c-3.28,0-6.57-.07-9.85,0-3.81.12-4.87-1.37-6.09-4.55a17.64,17.64,0,0,1-.83-5A56.74,56.74,0,0,1,.6,20.78a11.25,11.25,0,0,1,1.69-4.34,4.42,4.42,0,0,1,4-2c3.39,0,6.78,0,10.18,0a3.87,3.87,0,0,0,2.72-1C24.26,9.31,29.32,5.14,34.38,1c.58-.48,1.14-1.28,2-.84s.74,1.39.74,2.19Q37.16,15.64,37.14,28.94Z"/><path class="cls-2" d="M71.88,29.13A56.75,56.75,0,0,1,68.33,49.3a27.29,27.29,0,0,1-4.63,7.87c-.65.75-1.13,1-1.83.07S60.5,55.77,59.8,55c-.31-.31-.54-.6-.15-1,3.45-3.92,5-8.71,5.93-13.69a56.22,56.22,0,0,0-1.4-28.06,22,22,0,0,0-4.35-8.12c-.51-.57-.41-.93.08-1.4A26.9,26.9,0,0,0,62,.55c.62-.75,1-.55,1.58.08a28.56,28.56,0,0,1,5.64,10.45A60.34,60.34,0,0,1,71.88,29.13Z"/><path class="cls-2" d="M62.25,29.41a41.08,41.08,0,0,1-3.13,15.83A20.16,20.16,0,0,1,56.17,50c-.52.63-1,.86-1.59.1s-1.49-1.56-2.24-2.33c-.33-.33-.47-.63-.12-1.06,2.83-3.41,3.89-7.53,4.45-11.76a40.56,40.56,0,0,0-.83-16.08,18.42,18.42,0,0,0-3.54-7.52.72.72,0,0,1,0-1.15c.77-.76,1.55-1.51,2.25-2.34s1.05-.53,1.58.1a23.59,23.59,0,0,1,4.5,9A46.48,46.48,0,0,1,62.25,29.41Z"/><path class="cls-2" d="M52.41,29.23a24.44,24.44,0,0,1-2.54,11.16,22.59,22.59,0,0,1-1.36,2c-.42.61-.85.75-1.41.1-.73-.84-1.52-1.64-2.29-2.45-.26-.28-.52-.54-.19-1A13,13,0,0,0,47,32.36a22.83,22.83,0,0,0-1.18-11.43,4.8,4.8,0,0,0-.71-1.39c-.8-.88-.7-1.55.21-2.29a13,13,0,0,0,1.76-1.87c.53-.64.94-.52,1.42.06a14.64,14.64,0,0,1,2.36,4.29A27.72,27.72,0,0,1,52.41,29.23Z"/></g></svg>