<svg version="1.1" id="Layer_1" xmlns="http://www.w3.org/2000/svg" xmlns:xlink="http://www.w3.org/1999/xlink" x="0px" y="0px"
	 viewBox="0 0 100 100" style="enable-background:new 0 0 100 100;" xml:space="preserve">
<style type="text/css">
	.st0{fill:#000000;}
    
    @media (prefers-color-scheme: dark) {
        .st0{fill:#ffffff;}
    }
</style>
<g>
	<circle class="st0" cx="141.4" cy="87.2" r="1.6"/>
	<path class="st0" d="M0.8,86.5c0,0-4.6-9.7,7.6-19.6C21,56.6,25.9,50.9,30.2,41s7.7-23.6-0.4-22.1C21.4,20.5,15.6,41.7,15,61.3
		l-0.7,0.6c0,0,1.2-41.9,15.6-43.6c14.8-1.7,1.4,27.2-5.4,34.9C18.2,60.3-0.4,74.9,0.8,86.5z"/>
	<path class="st0" d="M15.1,62.4c0,0-0.4,27.1,1.8,23.8c2.3-3.4,6.3-15.8,9.3-14.7c1.6,0.5,2.9,3.7,6.1,3.4
		C43.1,74.2,75.6,24.4,64.1,14C51.7,2.7,46.5,63.6,46.5,63.6l-2.9,3.2c0,0,6.1-62.2,19.9-54.8C80,20.9,45.3,75.7,32.2,76
		c-4.9,0.1-5.7-5-7.9-1.9c-2.8,4.1-6.7,15.7-8.5,13.7c-2.1-2.3-1.5-24.8-1.5-24.8L15.1,62.4z"/>
	<path class="st0" d="M46.5,65.1c0,0-3.2,22.1-0.5,19.5c2.8-2.8,5.8-14,9.5-11.9c2.9,1.7,3.7,12.4,7.7,11.9
		c2.8-0.3,12-16.4,41.7-9.9c24.7,5.4,36.6-1.1,38.2-3.8c0,0-1.8,12.1-25.7,8c-23.9-4.1-23.2-6.5-36.1-3.3
		c-12.8,3.1-14.8,10.2-18.9,10.1c-4.7-0.1-5.6-12.4-8.1-12.1c-2.3,0.2-7.1,13.7-9.5,12.1c-2.8-1.9-1.1-17.4-1.1-17.4L46.5,65.1z"/>
</g>
</svg>
