<?xml version="1.0" encoding="utf-8"?>
<!-- Generator: Adobe Illustrator 25.2.0, SVG Export Plug-In . SVG Version: 6.00 Build 0)  -->
<svg version="1.1" id="Layer_1" xmlns="http://www.w3.org/2000/svg" xmlns:xlink="http://www.w3.org/1999/xlink" x="0px" y="0px"
	 viewBox="0 0 96.4 52.1" style="enable-background:new 0 0 96.4 52.1;" xml:space="preserve">
<style type="text/css">
	.st0{fill:#FFFFFF;}
</style>
<g id="Group_73" transform="translate(-1041.089 -1135.894)">
	<circle id="Ellipse_60" class="st0" cx="1136.4" cy="1186.9" r="1.1"/>
	<path id="Path_74" class="st0" d="M1041.7,1186.4c0,0-3.1-6.5,5.1-13.2c8.5-6.9,11.8-10.8,14.7-17.4s5.2-15.9-0.3-14.9
		c-5.6,1-9.6,15.3-10,28.5l-0.4,0.4c0,0,0.8-28.2,10.5-29.4c9.9-1.2,0.9,18.3-3.7,23.5C1053.3,1168.8,1040.8,1178.6,1041.7,1186.4z"
		/>
	<path id="Path_75" class="st0" d="M1051.2,1170.2c0,0-0.3,18.2,1.2,16c1.6-2.3,4.3-10.6,6.3-9.9c1.1,0.4,1.9,2.5,4.1,2.3
		c7.3-0.5,29.2-34,21.4-41c-8.4-7.6-11.9,33.4-11.9,33.4l-2,2.2c0,0,4.1-41.9,13.4-36.9c11.1,5.9-12.3,42.8-21.1,43.1
		c-3.3,0.1-3.8-3.4-5.3-1.3c-1.9,2.7-4.5,10.6-5.7,9.2c-1.4-1.6-1-16.7-1-16.7L1051.2,1170.2z"/>
	<path id="Path_76" class="st0" d="M1072.4,1172c0,0-2.2,14.9-0.4,13.1c1.9-1.9,3.9-9.4,6.4-8c2,1.1,2.5,8.3,5.2,8
		c1.9-0.2,8.1-11,28.1-6.6c16.7,3.7,24.6-0.8,25.7-2.6c0,0-1.2,8.2-17.3,5.4s-15.6-4.4-24.3-2.2s-10,6.9-12.7,6.8
		c-3.2-0.1-3.8-8.3-5.4-8.2c-1.6,0.2-4.8,9.2-6.4,8.1c-1.9-1.3-0.8-11.7-0.8-11.7L1072.4,1172z"/>
</g>
</svg>
