<?xml version="1.0" encoding="utf-8"?>
<!-- Generator: Adobe Illustrator 25.2.0, SVG Export Plug-In . SVG Version: 6.00 Build 0)  -->
<svg version="1.1" id="Layer_1" xmlns="http://www.w3.org/2000/svg" xmlns:xlink="http://www.w3.org/1999/xlink" x="0px" y="0px"
	 viewBox="0 0 96.4 52.1" style="enable-background:new 0 0 96.4 52.1;" xml:space="preserve">
<g id="Group_77" transform="translate(-2980.975 -35.75)">
	<circle id="Ellipse_63" cx="3076.3" cy="86.8" r="1.1"/>
	<path id="Path_84" d="M2981.5,86.3c0,0-3.1-6.5,5.1-13.2c8.5-6.9,11.8-10.8,14.7-17.4s5.2-15.9-0.3-14.9c-5.6,1-9.6,15.3-10,28.5
		l-0.4,0.4c0,0,0.8-28.2,10.5-29.4c9.9-1.2,0.9,18.3-3.7,23.5C2993.2,68.6,2980.7,78.5,2981.5,86.3z"/>
	<path id="Path_85" d="M2991.1,70.1c0,0-0.3,18.2,1.2,16c1.6-2.3,4.3-10.6,6.3-9.9c1.1,0.4,1.9,2.5,4.1,2.3c7.3-0.5,29.2-34,21.4-41
		c-8.4-7.6-11.9,33.4-11.9,33.4l-2,2.2c0,0,4.1-41.9,13.4-36.9c11.1,5.9-12.3,42.8-21.1,43.1c-3.3,0.1-3.8-3.4-5.3-1.3
		c-1.9,2.7-4.5,10.6-5.7,9.2c-1.4-1.6-1-16.7-1-16.7L2991.1,70.1z"/>
	<path id="Path_86" d="M3012.3,71.8c0,0-2.2,14.9-0.4,13.1c1.9-1.9,3.9-9.4,6.4-8c2,1.1,2.5,8.3,5.2,8c1.9-0.2,8.1-11,28.1-6.6
		c16.7,3.7,24.6-0.8,25.7-2.6c0,0-1.2,8.2-17.3,5.4s-15.6-4.4-24.3-2.2s-10,6.9-12.7,6.8c-3.2-0.1-3.8-8.3-5.4-8.2
		c-1.6,0.2-4.8,9.2-6.4,8.1c-1.9-1.3-0.8-11.7-0.8-11.7L3012.3,71.8z"/>
</g>
</svg>
