<?xml version="1.0" encoding="utf-8"?>
<!-- Generator: Adobe Illustrator 25.2.0, SVG Export Plug-In . SVG Version: 6.00 Build 0)  -->
<svg version="1.1" id="Layer_1" xmlns="http://www.w3.org/2000/svg" xmlns:xlink="http://www.w3.org/1999/xlink" x="0px" y="0px"
	 viewBox="0 0 242.1 130.9" style="enable-background:new 0 0 242.1 130.9;" xml:space="preserve">
<style type="text/css">
	.st0{fill:#FFFFFF;}
</style>
<g id="Group_79" transform="translate(-839.951 -443.062)">
	<circle id="Ellipse_66" class="st0" cx="1079.4" cy="571.3" r="2.7"/>
	<path id="Path_87" class="st0" d="M841.4,570c0,0-7.7-16.4,12.8-33.2c21.3-17.4,29.5-27.1,36.9-43.7s13-39.9-0.7-37.3
		c-14.2,2.6-24.1,38.5-25,71.6l-1.1,1c0,0,2-71,26.3-73.8c25-2.9,2.3,46-9.2,59.1C870.7,525.7,839.2,550.5,841.4,570z"/>
	<path id="Path_88" class="st0" d="M865.5,529.3c0,0-0.7,45.8,3.1,40.3c3.9-5.7,10.7-26.7,15.7-24.9c2.6,0.9,4.8,6.2,10.3,5.8
		c18.3-1.3,73.3-85.4,53.8-103.1c-21.1-19.1-29.8,83.9-29.8,83.9l-4.9,5.5c0,0,10.3-105.2,33.7-92.7c27.9,14.9-30.8,107.7-53,108.2
		c-8.2,0.2-9.6-8.5-13.3-3.2c-4.8,6.9-11.4,26.6-14.3,23.2c-3.5-4-2.5-42-2.5-42L865.5,529.3z"/>
	<path id="Path_89" class="st0" d="M918.6,533.8c0,0-5.4,37.5-0.9,33c4.8-4.7,9.8-23.7,16.1-20.1c5,2.9,6.2,20.9,13.1,20.1
		c4.8-0.6,20.3-27.7,70.5-16.7c41.8,9.2,61.9-1.9,64.6-6.5c0,0-3,20.5-43.5,13.5c-40.5-7-39.3-10.9-61-5.6s-25,17.2-31.9,17.1
		c-8-0.1-9.5-21-13.7-20.5c-3.9,0.4-12.1,23.1-16,20.5c-4.7-3.2-1.9-29.4-1.9-29.4L918.6,533.8z"/>
</g>
</svg>
